<svg fill="none" height="16" viewBox="0 0 16 16" width="16" xmlns="http://www.w3.org/2000/svg"><path d="m7.98438.0625c1.33333 0 2.42182.015625 3.26562.046875.7188.03125 1.3594.15625 1.9219.375.5416.208333 1.0104.510417 1.4062.906245.3959.39584.6979.86459.9063 1.40625.2187.5625.3437 1.20313.375 1.92188.0312.84375.0468 1.93229.0468 3.26562 0 1.33334-.0156 2.42183-.0468 3.26563-.0313.7187-.1563 1.3594-.375 1.9219-.2084.5416-.5104 1.0104-.9063 1.4062-.3958.3959-.8646.6979-1.4062.9063-.5625.2187-1.2031.3437-1.9219.375-.8438.0312-1.93229.0468-3.26562.0468-1.33334 0-2.42188-.0156-3.26563-.0468-.71875-.0313-1.35937-.1563-1.92187-.375-.54167-.2084-1.01042-.5104-1.40626-.9063-.395828-.3958-.697912-.8646-.906245-1.4062-.21875-.5625-.34375-1.2032-.375-1.9219-.03125-.8438-.046875-1.93229-.046875-3.26563 0-1.33333.015625-2.42187.046875-3.26562.03125-.71875.15625-1.35938.375-1.92188.208333-.54166.510417-1.01041.906245-1.40625.39584-.395828.86459-.697912 1.40626-.906245.5625-.21875 1.20312-.34375 1.92187-.375.84375-.03125 1.93229-.046875 3.26563-.046875zm0 1.03125c-1.38542 0-2.51563.01562-3.39063.04687-.5625.02084-1.08333.1198-1.5625.29688-.75.3125-1.28125.84375-1.59375 1.59375-.17708.47917-.27604 1-.29688 1.5625-.03124.875-.04687 2.00521-.04687 3.39062 0 1.38542.01563 2.51563.04687 3.39063.02084.5625.1198 1.0833.29688 1.5625.3125.75.84375 1.2812 1.59375 1.5937.47917.1771 1 .2761 1.5625.2969.875.0313 2.00521.0469 3.39063.0469 1.38541 0 2.51562-.0156 3.39062-.0469.5625-.0208 1.0833-.1198 1.5625-.2969.75-.3125 1.2813-.8437 1.5937-1.5937.1771-.4792.2761-1 .2969-1.5625.0313-.875.0469-2.00521.0469-3.39063 0-1.38541-.0156-2.51562-.0469-3.39062-.0208-.5625-.1198-1.08333-.2969-1.5625-.3124-.75-.8437-1.28125-1.5937-1.59375-.4792-.17708-1-.27604-1.5625-.29688-.875-.03125-2.00521-.04687-3.39062-.04687zm0 10.06245c.875 0 1.62239-.3098 2.24222-.9296.6198-.61983.9296-1.36723.9296-2.24223s-.3098-1.62239-.9296-2.24218c-.61983-.61979-1.36722-.92969-2.24222-.92969s-1.6224.3099-2.24219.92969-.92969 1.36718-.92969 2.24218.3099 1.6224.92969 2.24223c.61979.6198 1.36719.9296 2.24219.9296zm0-7.23433c1.125 0 2.08332.39584 2.87502 1.1875.7916.79167 1.1875 1.75 1.1875 2.875s-.3959 2.08333-1.1875 2.87503c-.7917.7916-1.75002 1.1875-2.87502 1.1875s-2.08334-.3959-2.875-1.1875c-.79167-.7917-1.1875-1.75003-1.1875-2.87503s.39583-2.08333 1.1875-2.875c.79166-.79166 1.75-1.1875 2.875-1.1875zm5.18752-.15625c0 .26042-.0938.48178-.2813.66407s-.4166.27343-.6875.27343c-.2604 0-.4817-.09114-.664-.27343s-.2735-.40365-.2735-.66407c0-.27083.0912-.5.2735-.6875s.4036-.28125.664-.28125.487.09636.6797.28907.2891.41927.2891.67968z" fill="#666"/></svg>