<svg fill="none" height="38" viewBox="0 0 34 38" width="34" xmlns="http://www.w3.org/2000/svg" xmlns:xlink="http://www.w3.org/1999/xlink"><clipPath id="a"><path d="m0 0h33.32v37.61h-33.32z"/></clipPath><g clip-path="url(#a)"><g fill="#fdc305"><path d="m6.07 20.72v-2.26c6.6836-.9177 13.4237-1.3621 20.17-1.33 0 .6 0 1.21-.06 1.82 1.9176-.851 3.9328-1.4623 6-1.82-1.3175-3.408-3.7182-6.2888-6.8329-8.19913-3.1147-1.91035-6.7707-2.74447-10.4057-2.37404-3.635.37044-7.04761 1.92489-9.71288 4.42427-2.66527 2.4993-4.435551 5.8052-5.038519 9.4089z"/><path d="m27.24 24.23c-1.16 1.28-1.39 1.2-1.39 3.45v9.18c2.2925-1.514 4.1745-3.5721 5.478-5.9906s1.9878-5.122 1.992-7.8694c-.0132-1.0409-.1203-2.0784-.32-3.1-2.0718 1.2295-4.0033 2.6814-5.76 4.33z"/><path d="m6.36 25.72s-3.79-1.44-5.19-1.83c-.382933-.1207-.773903-.2143-1.17-.28.108395 2.886.965588 5.6941 2.48739 8.1486 1.5218 2.4545 3.65587 4.471 6.19261 5.8514z"/></g><path d="m26.29 17.12c.0407-5.5214-.428-11.03472-1.4-16.47 0 0-.14-1.29-.89-.24-.5891 1.24814-.9933 2.57539-1.2 3.94-4.2582-.27423-8.5325-.16043-12.77.34-.79-2.69-2.18-3.94-2.85-3.69s-.72 3.31-.72 3.31l-.33 14.1c6.6813-.904 13.418-1.3351 20.16-1.29z" fill="#f06351"/><path d="m12.41 14c0-.09 1 .68 1.41.92s.61.42.61.59-.27.34-.63.34-.91-.12-1-.27h.94.29c-.6093-.4506-1.1543-.9822-1.62-1.58z" fill="#000"/><path d="m19.89 14.11-1.09 1.33c0 .06-.17.35.18.3.4142-.0617.8223-.1588 1.22-.29.11 0 .07-.19-.11-.17s-.69.05-1 .11l.84-1.26s.07-.13-.04-.02z" fill="#000"/><path d="m16.75 20.2c.4635-.2042.8467-.5557 1.09-1 .28-.65 0-.91-.44-1-.6021-.1098-1.2235.0116-1.74.34-.39.36-.34.72-.05 1 .3513.2662.7342.4879 1.14.66z" fill="#000"/><path d="m16.35 21.45c-.1121.2285-.2684.4325-.46.6-.2848.2291-.6349.3622-1 .38-.5262.042-1.0494-.1111-1.47-.43-.1978-.1192-.3764-.2676-.53-.44-.1005-.1109-.2231-.1995-.36-.26 0 0 .75 4.1 2.57 4.75s2.14-.75 2.2-1.13c.0601-1.1349-.2258-2.2612-.82-3.23-.02-.31-.03-.11-.13-.24z" fill="#f06351"/><path d="m14.71 22.59c-.4647-.0653-.9111-.2249-1.3118-.4691s-.7472-.5678-1.0182-.9509c-.0133-.013-.0239-.0286-.0311-.0458-.0072-.0171-.0109-.0356-.0109-.0542s.0037-.0371.0109-.0542c.0072-.0172.0178-.0328.0311-.0458.013-.0133.0286-.0239.0458-.0311.0171-.0072.0356-.0109.0542-.0109s.0371.0037.0542.0109c.0172.0072.0328.0178.0458.0311.5048.6942 1.263 1.1613 2.11 1.3.3317-.025.6526-.1287.9361-.3026.2835-.174.5214-.413.6939-.6974l.14-.19.1.21s.37.76 1 .8 1.05-.41 1.61-1.28c.013-.0133.0286-.0239.0458-.0311.0171-.0072.0356-.0109.0542-.0109s.0371.0037.0542.0109c.0172.0072.0328.0178.0458.0311.0323.0206.0555.0529.0648.09.0093.0372.004.0766-.0148.11-.64 1-1.27 1.44-1.88 1.4-.232-.0337-.4533-.1196-.6473-.2513-.194-.1316-.3556-.3056-.4727-.5087-.1967.2745-.4524.5014-.7483.6641-.2959.1626-.6246.2569-.9617.2759z" fill="#000"/><path d="m26.24 18.92c-1.7955 1.6237-3.4888 3.357-5.07 5.19-1.5714 1.8261-3.3462 3.4668-5.29 4.89-.22-.53-1.62-1.51-1.62-1.51s-3.13-2.14-5.18-3.82c-1.10586-.9327-2.1513-1.9347-3.13-3l-2-.11c2.89018 4.2055 7.1202 7.3076 12 8.8.86-.14 3.27-1.86 5.07-3.26 2.1189-1.8181 4.104-3.7866 5.94-5.89.5025-.589.8893-1.2675 1.14-2-1.1.39-1.86.71-1.86.71z" fill="#f06351"/></g></svg>