<svg fill="none" height="16" viewBox="0 0 23 16" width="23" xmlns="http://www.w3.org/2000/svg"><path d="m.0700912 3.99266c0-.62184.4231198-.95714 1.2693588-1.00591l3.26094.01828c.21886 0 .36476.09145.43772.27435.33557.91447.71127 1.70396 1.1271 2.36847.41582.66452.95932 1.42963 1.63047 2.29532.05836.10974.1532.16461.28451.16461.10214 0 .18238-.04268.24074-.12803l.06566-.20118.02189-3.16407c0-.21947-.06201-.36579-.18603-.43894-.12402-.07316-.35382-.12803-.6894-.16461-.26262-.03658-.39393-.1707-.39393-.40236 0-.04878.00729-.08536.02188-.10974.3064-.79254 1.18182-1.18881 2.62626-1.18881l1.22564-.01829c.5544 0 1.014.11583 1.3787.3475.3648.23166.5472.59745.5472 1.09736v4.1517c.1021.06096.1969.09144.2845.09144.2188 0 .4085-.10973.569-.32921 1.605-1.87771 2.4731-3.13358 2.6044-3.76761 0-.0122.0146-.04268.0438-.09145.1021-.18289.2699-.3414.5033-.47553.2335-.13412.4377-.22556.6128-.27434.0584-.02438.124-.03658.197-.03658h3.3923l.2188.01829c.2918 0 .518.11584.6785.3475.0583.07316.0984.15241.1203.23777.0219.08535.0365.1707.0438.25605s.0109.13412.0109.14631v.12803c-.1021.49991-.3611 1.03335-.7769 1.60032s-.9447 1.17967-1.5867 1.83809c-.642.65841-1.0432 1.09126-1.2037 1.29854-.1313.14632-.197.28044-.197.40237 0 .09754.0584.20728.1751.32921l3.1953 3.36529c.1751.195.2626.4084.2626.6401 0 .2804-.1313.5121-.3939.695s-.5763.2865-.9411.3109l-.372.0183h-3.3266c-.0146 0-.0438.003-.0876.0091s-.0729.0092-.0875.0092c-.321 0-.6201-.1158-.8973-.3475-.1022-.0976-.7879-.8169-2.0573-2.1582-.0729-.0853-.1751-.1646-.3064-.2377-.0583.1951-.1349.4755-.2298.8413-.0948.3658-.1641.6279-.2079.7864l-.0656.3109c-.1459.4268-.4523.6829-.9192.7682l-.3064.0183h-2.14481c-1.211 0-2.41835-.4633-3.62205-1.39-1.20371-.9267-2.28704-2.1246-3.25-3.59387-.96296-1.46925-1.86027-3.17931-2.691921-5.13017-.072952-.15851-.1094278-.33531-.1094278-.5304zm13.1532088 4.73696c-.3064 0-.5836-.07011-.8317-.21033-.248-.14022-.372-.33226-.372-.57612v-4.20656c0-.24386-.073-.41761-.2189-.52125s-.4012-.15546-.766-.15546l-1.24744.03658c-.62738 0-1.10157.09145-1.42255.27434.64197.25605.96296.67061.96296 1.24368v3.21894c-.02918.30482-.17509.55782-.43771.75901-.26263.20118-.55444.30177-.87542.30177-.43771 0-.77329-.1768-1.00674-.53039-1.13805-1.43877-1.98429-2.80438-2.53872-4.09683l-.19697-.47552-2.91077-.01829c-.18968 0-.29546.00914-.31734.02743-.02189.01829-.03283.07011-.03283.15546 0 .10974.01459.22557.04377.3475l.4596 1.02421c1.22559 2.64587 2.55695 4.73081 3.9941 6.25501 1.43715 1.5241 2.84877 2.2861 4.23485 2.2861h2.18851c.0876 0 .1532-.0213.197-.064.0438-.0426.0803-.125.1094-.2469l.0438-.1829.4158-1.6094c.1168-.2195.2189-.3658.3064-.439.1605-.1341.3502-.2012.5691-.2012.3501 0 .7076.1768 1.0724.5304l1.8602 1.9753c.1167.1585.2408.2377.3721.2377h3.6111c.4377 0 .6566-.0914.6566-.2743 0-.061-.0219-.1219-.0657-.1829l-3.1734-3.3104c-.248-.25603-.3721-.53037-.3721-.823s.1168-.57307.3502-.84131c.1897-.24386.5581-.64928 1.1052-1.21625.5472-.56697 1.025-1.09736 1.4335-1.59118.4086-.49381.6785-.9419.8098-1.34427l.0656-.23776c-.0145-.02439-.0218-.06401-.0218-.11888s-.0073-.10059-.0219-.13717h-3.436c-.2189.07316-.394.18289-.5253.32921l-.1313.3475c-.3648.84131-1.3204 2.13986-2.867 3.89564-.3064.24386-.6639.36579-1.0724.36579z" fill="#666"/></svg>